<svg width="23" height="22" viewBox="0 0 23 22" fill="none" xmlns="http://www.w3.org/2000/svg">
<path d="M11.4999 8.375C10.7374 8.375 10.0062 8.65156 9.46699 9.14384C8.92782 9.63613 8.62492 10.3038 8.62492 11C8.62492 11.6962 8.92782 12.3639 9.46699 12.8562C10.0062 13.3484 10.7374 13.625 11.4999 13.625C12.2624 13.625 12.9937 13.3484 13.5329 12.8562C14.072 12.3639 14.3749 11.6962 14.3749 11C14.3749 10.3038 14.072 9.63613 13.5329 9.14384C12.9937 8.65156 12.2624 8.375 11.4999 8.375ZM11.4999 15.375C10.2291 15.375 9.01031 14.9141 8.1117 14.0936C7.21309 13.2731 6.70825 12.1603 6.70825 11C6.70825 9.83968 7.21309 8.72688 8.1117 7.90641C9.01031 7.08594 10.2291 6.625 11.4999 6.625C12.7708 6.625 13.9895 7.08594 14.8881 7.90641C15.7868 8.72688 16.2916 9.83968 16.2916 11C16.2916 12.1603 15.7868 13.2731 14.8881 14.0936C13.9895 14.9141 12.7708 15.375 11.4999 15.375ZM11.4999 4.4375C6.70825 4.4375 2.61617 7.15875 0.958252 11C2.61617 14.8412 6.70825 17.5625 11.4999 17.5625C16.2916 17.5625 20.3837 14.8412 22.0416 11C20.3837 7.15875 16.2916 4.4375 11.4999 4.4375Z" fill="#ACACAE"/>
</svg>
