<svg width="40" height="40" viewBox="0 0 40 40" fill="none" xmlns="http://www.w3.org/2000/svg">
<g clip-path="url(#clip0_58_47)">
<path d="M38.8325 33.53L30.045 24.7425C31.575 22.265 32.5 19.375 32.5 16.25C32.5 7.275 25.225 0 16.25 0C7.275 0 0 7.275 0 16.25C0 25.225 7.275 32.5 16.25 32.5C19.375 32.5 22.265 31.575 24.74 30.0475L33.53 38.835C34.2374 39.519 35.1853 39.8976 36.1692 39.8892C37.1532 39.8808 38.0945 39.4861 38.7901 38.7901C39.4858 38.0942 39.88 37.1527 39.888 36.1687C39.8959 35.1848 39.5168 34.2371 38.8325 33.53ZM16.25 27.5C10.0375 27.5 5 22.4625 5 16.25C5 10.0375 10.0375 5 16.25 5C22.4625 5 27.5 10.0375 27.5 16.25C27.5 22.4625 22.4625 27.5 16.25 27.5Z" fill="#898989"/>
</g>
<defs>
<clipPath id="clip0_58_47">
<rect width="40" height="40" fill="white"/>
</clipPath>
</defs>
</svg>
